# xmcd CD database file
#
# Track frame offsets:
#	150
#	17468
#	31794
#	49097
#	62993
#	77956
#	93061
#	105369
#	123914
#
# Disc length: 1821 seconds
#
# Revision: 0
# Processed by: cddbd v1.5.2PL0 Copyright (c) Steve Scherf et al.
# Submitted via: CDex 1.70beta2
#
DISCID=60071b09
DTITLE=The Nashville Attitude - Cool Walk
DYEAR=1998
DGENRE=Country
TTITLE0=Cool Walk
TTITLE1=Everyday That Goes By
TTITLE2=One Of These Days
TTITLE3=5,6,7,8... I Can't Wait
TTITLE4=Wasted Days and Wasted Nights
TTITLE5=Far From Over
TTITLE6=Loving You
TTITLE7=Pretend
TTITLE8=Ring Of Fire
EXTD=YEAR: 1998
EXTT0=
EXTT1=
EXTT2=
EXTT3=
EXTT4=
EXTT5=
EXTT6=
EXTT7=
EXTT8=
PLAYORDER=
